<?xml version="1.0" encoding="UTF-8" standalone="no"?>
<svg
   xmlns:dc="http://purl.org/dc/elements/1.1/"
   xmlns:cc="http://creativecommons.org/ns#"
   xmlns:rdf="http://www.w3.org/1999/02/22-rdf-syntax-ns#"
   xmlns:svg="http://www.w3.org/2000/svg"
   xmlns="http://www.w3.org/2000/svg"
   id="svg8"
   version="1.1"
   viewBox="0 0 135.46666 135.46667"
   height="512"
   width="512">
  <defs
     id="defs2">
    <marker
       style="overflow:visible"
       id="marker5340"
       refX="0.0"
       refY="0.0"
       orient="auto">
      <path
         transform="scale(0.4) translate(7.4, 1)"
         style="fill-rule:evenodd;stroke:#000000;stroke-width:1pt;stroke-opacity:1;fill:#ff0000;fill-opacity:1"
         d="M -2.5,-1.0 C -2.5,1.7600000 -4.7400000,4.0 -7.5,4.0 C -10.260000,4.0 -12.5,1.7600000 -12.5,-1.0 C -12.5,-3.7600000 -10.260000,-6.0 -7.5,-6.0 C -4.7400000,-6.0 -2.5,-3.7600000 -2.5,-1.0 z "
         id="path5338" />
    </marker>
    <marker
       style="overflow:visible"
       id="marker5282"
       refX="0.0"
       refY="0.0"
       orient="auto">
      <path
         transform="scale(0.4) translate(7.4, 1)"
         style="fill-rule:evenodd;stroke:#000000;stroke-width:1pt;stroke-opacity:1;fill:#ff0000;fill-opacity:1"
         d="M -2.5,-1.0 C -2.5,1.7600000 -4.7400000,4.0 -7.5,4.0 C -10.260000,4.0 -12.5,1.7600000 -12.5,-1.0 C -12.5,-3.7600000 -10.260000,-6.0 -7.5,-6.0 C -4.7400000,-6.0 -2.5,-3.7600000 -2.5,-1.0 z "
         id="path5280" />
    </marker>
    <marker
       style="overflow:visible"
       id="marker5230"
       refX="0.0"
       refY="0.0"
       orient="auto">
      <path
         transform="scale(0.4) translate(7.4, 1)"
         style="fill-rule:evenodd;stroke:#000000;stroke-width:1pt;stroke-opacity:1;fill:#ff0000;fill-opacity:1"
         d="M -2.5,-1.0 C -2.5,1.7600000 -4.7400000,4.0 -7.5,4.0 C -10.260000,4.0 -12.5,1.7600000 -12.5,-1.0 C -12.5,-3.7600000 -10.260000,-6.0 -7.5,-6.0 C -4.7400000,-6.0 -2.5,-3.7600000 -2.5,-1.0 z "
         id="path5228" />
    </marker>
    <marker
       orient="auto"
       refY="0.0"
       refX="0.0"
       id="marker5078"
       style="overflow:visible">
      <path
         id="path5076"
         d="M -2.5,-1.0 C -2.5,1.7600000 -4.7400000,4.0 -7.5,4.0 C -10.260000,4.0 -12.5,1.7600000 -12.5,-1.0 C -12.5,-3.7600000 -10.260000,-6.0 -7.5,-6.0 C -4.7400000,-6.0 -2.5,-3.7600000 -2.5,-1.0 z "
         style="fill-rule:evenodd;stroke:#000000;stroke-width:1pt;stroke-opacity:1;fill:#ff0000;fill-opacity:1"
         transform="scale(0.4) translate(7.4, 1)" />
    </marker>
    <marker
       orient="auto"
       refY="0.0"
       refX="0.0"
       id="marker5038"
       style="overflow:visible">
      <path
         id="path5036"
         d="M -2.5,-1.0 C -2.5,1.7600000 -4.7400000,4.0 -7.5,4.0 C -10.260000,4.0 -12.5,1.7600000 -12.5,-1.0 C -12.5,-3.7600000 -10.260000,-6.0 -7.5,-6.0 C -4.7400000,-6.0 -2.5,-3.7600000 -2.5,-1.0 z "
         style="fill-rule:evenodd;stroke:#000000;stroke-width:1pt;stroke-opacity:1;fill:#ff0000;fill-opacity:1"
         transform="scale(0.4) translate(7.4, 1)" />
    </marker>
    <marker
       orient="auto"
       refY="0.0"
       refX="0.0"
       id="marker4942"
       style="overflow:visible">
      <path
         id="path4940"
         d="M 0,-7.0710768 L -7.0710894,0 L 0,7.0710589 L 7.0710462,0 L 0,-7.0710768 z "
         style="fill-rule:evenodd;stroke:#000000;stroke-width:1pt;stroke-opacity:1;fill:#ff0000;fill-opacity:1"
         transform="scale(0.8)" />
    </marker>
    <marker
       orient="auto"
       refY="0.0"
       refX="0.0"
       id="marker4914"
       style="overflow:visible">
      <path
         id="path4912"
         d="M 0,-7.0710768 L -7.0710894,0 L 0,7.0710589 L 7.0710462,0 L 0,-7.0710768 z "
         style="fill-rule:evenodd;stroke:#000000;stroke-width:1pt;stroke-opacity:1;fill:#ff0000;fill-opacity:1"
         transform="scale(0.8)" />
    </marker>
    <marker
       orient="auto"
       refY="0.0"
       refX="0.0"
       id="marker4892"
       style="overflow:visible">
      <path
         id="path4890"
         d="M 0,-7.0710768 L -7.0710894,0 L 0,7.0710589 L 7.0710462,0 L 0,-7.0710768 z "
         style="fill-rule:evenodd;stroke:#000000;stroke-width:1pt;stroke-opacity:1;fill:#ff0000;fill-opacity:1"
         transform="scale(0.8)" />
    </marker>
  </defs>
  <metadata
     id="metadata5">
    <rdf:RDF>
      <cc:Work
         rdf:about="">
        <dc:format>image/svg+xml</dc:format>
        <dc:type
           rdf:resource="http://purl.org/dc/dcmitype/StillImage" />
        <dc:title></dc:title>
      </cc:Work>
    </rdf:RDF>
  </metadata>
  <g
     transform="translate(0,-161.53332)"
     id="layer1">
    <path
       id="rect817"
       d="M 0,169.99999 8.4666666,161.53332 67.733333,220.79999 127,161.53332 l 8.46667,8.46667 -59.266671,59.26666 59.266671,59.26667 L 127,296.99999 67.733333,237.73332 8.4666647,296.99999 -5.3000033e-6,288.53332 59.266666,229.26665 Z"
       style="opacity:1;fill:#ff0000;fill-opacity:0.6901961;stroke:#000000;stroke-width:0.52916667;stroke-linecap:butt;stroke-linejoin:miter;stroke-miterlimit:4;stroke-dasharray:none;stroke-opacity:1;paint-order:markers fill stroke;" />
    <g
       id="text4597"
       style="font-style:normal;font-variant:normal;font-weight:normal;font-stretch:normal;font-size:52.21111298px;line-height:1.25;font-family:Lora;-inkscape-font-specification:Lora;letter-spacing:0px;word-spacing:0px;fill:#000000;fill-opacity:1;stroke:none;stroke-width:0.26458332"
       aria-label="DEAD">
      <path
         id="path4599"
         style="font-style:normal;font-variant:normal;font-weight:500;font-stretch:normal;font-size:52.21111298px;font-family:Ubuntu;-inkscape-font-specification:'Ubuntu Medium';stroke-width:0.52916667;fill:#ff0000;fill-opacity:1;stroke:#f3f3f3;stroke-opacity:1;stroke-miterlimit:4;stroke-dasharray:none;stroke-linecap:butt;stroke-dashoffset:0"
         d="m 6.4448298,241.90174 q 0.5743223,0.0522 1.5141223,0.10442 0.9398,0 2.5583449,0 6.630811,0 9.8679,-3.34151 3.2893,-3.39372 3.2893,-9.45021 0,-6.16091 -3.184878,-9.45021 -3.184878,-3.2893 -9.8679,-3.2893 -2.9238225,0 -4.1768892,0.15663 z m 24.1215342,-12.6873 q 0,4.699 -1.461911,8.19714 -1.461911,3.44594 -4.176889,5.79544 -2.662767,2.29729 -6.474178,3.44593 -3.7592,1.09643 -8.353778,1.09643 -2.192867,0 -4.960056,-0.20884 -2.767189,-0.15663 -5.27332241,-0.73096 v -35.13807 q 2.50613341,-0.57433 5.32553351,-0.73096 2.8194001,-0.15663 5.0122669,-0.15663 4.542367,0 8.301567,1.09643 3.7592,1.04422 6.421967,3.34151 2.714978,2.24508 4.176889,5.74322 1.461911,3.44594 1.461911,8.24936 z" />
      <path
         id="path4601"
         style="font-style:normal;font-variant:normal;font-weight:500;font-stretch:normal;font-size:52.21111298px;font-family:Ubuntu;-inkscape-font-specification:'Ubuntu Medium';stroke-width:0.52916667;fill:#ff0000;fill-opacity:1;stroke:#f3f3f3;stroke-opacity:1;stroke-miterlimit:4;stroke-dasharray:none;stroke-linecap:butt;stroke-dashoffset:0"
         d="M 37.800865,247.3317 V 211.14939 H 61.03481 v 5.58659 H 44.379465 v 8.9281 h 14.827956 v 5.48217 H 44.379465 v 10.59886 h 17.908412 v 5.58659 z" />
      <path
         id="path4603"
         style="font-style:normal;font-variant:normal;font-weight:500;font-stretch:normal;font-size:52.21111298px;font-family:Ubuntu;-inkscape-font-specification:'Ubuntu Medium';stroke-width:0.52916667;fill:#ff0000;fill-opacity:1;stroke:#f3f3f3;stroke-opacity:1;stroke-miterlimit:4;stroke-dasharray:none;stroke-linecap:butt;stroke-dashoffset:0"
         d="m 93.226222,247.3317 q -0.730956,-2.14066 -1.514122,-4.2291 -0.783167,-2.08845 -1.514123,-4.28132 H 74.952332 q -0.730955,2.19287 -1.514122,4.33353 -0.730956,2.08844 -1.461911,4.17689 h -6.839656 q 2.036233,-5.79544 3.863622,-10.70328 1.827389,-4.90785 3.550356,-9.29358 1.775178,-4.38573 3.498145,-8.35378 1.722966,-3.96804 3.550355,-7.83167 h 6.213123 q 1.827389,3.86363 3.550355,7.83167 1.722967,3.96805 3.445934,8.35378 1.775178,4.38573 3.602567,9.29358 1.8796,4.90784 3.91583,10.70328 z M 82.575155,218.14568 q -1.200856,2.76719 -2.767189,6.73524 -1.514123,3.96804 -3.184878,8.61483 h 11.904134 q -1.670756,-4.64679 -3.237089,-8.66704 -1.566334,-4.02026 -2.714978,-6.68303 z" />
      <path
         id="path4605"
         style="font-style:normal;font-variant:normal;font-weight:500;font-stretch:normal;font-size:52.21111298px;font-family:Ubuntu;-inkscape-font-specification:'Ubuntu Medium';stroke-width:0.52916667;fill:#ff0000;fill-opacity:1;stroke:#f3f3f3;stroke-opacity:1;stroke-miterlimit:4;stroke-dasharray:none;stroke-linecap:butt;stroke-dashoffset:0"
         d="m 111.4789,241.90174 q 0.57432,0.0522 1.51412,0.10442 0.93981,0 2.55835,0 6.63081,0 9.8679,-3.34151 3.2893,-3.39372 3.2893,-9.45021 0,-6.16091 -3.18488,-9.45021 -3.18488,-3.2893 -9.8679,-3.2893 -2.92382,0 -4.17689,0.15663 z m 24.12154,-12.6873 q 0,4.699 -1.46191,8.19714 -1.46192,3.44594 -4.17689,5.79544 -2.66277,2.29729 -6.47418,3.44593 -3.7592,1.09643 -8.35378,1.09643 -2.19287,0 -4.96006,-0.20884 -2.76718,-0.15663 -5.27332,-0.73096 v -35.13807 q 2.50614,-0.57433 5.32554,-0.73096 2.8194,-0.15663 5.01226,-0.15663 4.54237,0 8.30157,1.09643 3.7592,1.04422 6.42197,3.34151 2.71497,2.24508 4.17689,5.74322 1.46191,3.44594 1.46191,8.24936 z" />
    </g>
  </g>
</svg>
