<svg xmlns="http://www.w3.org/2000/svg" viewBox="0 0 512 512">
    <defs>
        <radialGradient id="gradient-1">
            <stop offset="0%" stop-color="#969696" stop-opacity="1"></stop>
            <stop offset="100%" stop-color="#646464" stop-opacity="1"></stop>
        </radialGradient>
        <clipPath id="fg-clip">
            <circle cx="256" cy="256" r="248" fill="#FFFFFF"></circle>
        </clipPath>
        <filter id="shadow" height="300%" width="300%" x="-100%" y="-100%">
            <feFlood flood-color="rgba(0, 0, 0, 1)" result="flood"></feFlood>
            <feComposite in="flood" in2="SourceGraphic" operator="atop" result="composite"></feComposite>
            <feGaussianBlur in="composite" stdDeviation="1" result="blur"></feGaussianBlur>
            <feOffset dx="5" dy="5" result="offset"></feOffset>
            <feComposite in="SourceGraphic" in2="offset" operator="over"></feComposite>
        </filter>
    </defs>
    <g class="fg">
        <circle cx="256" cy="256" r="256" fill="#000000"></circle>
        <circle cx="256" cy="256" r="248" fill="url(#gradient-1)"></circle>
        <path d="M257.125 94.906C207.597 94.859 146.651 124.138 128.719 199.844L189.469 214.156C216.434 137.914 280.339 143.332 302.779 185.531C329.554 235.877 213.092 292.814 218.655 375.938L296.343 375.938C302.833 277.794 415.316 252.448 355.905 146.408C337.963 114.38 301 96.572 261.876 95.03L261.876 95C260.303 94.938 258.723 94.908 257.126 94.906Z" fill="#FFFFFF" fill-opacity="1" clip-path="url(#fg-clip)" filter="url(#shadow)"></path>
        <path d="M258.5 395.97C231.55 395.97 209.906 417.614 209.906 444.562C209.906 471.512 231.551 493.156 258.5 493.156C285.45 493.156 307.094 471.511 307.094 444.562C307.094 417.614 285.449 395.969 258.5 395.969Z" fill="#FFFFFF" fill-opacity="1" clip-path="url(#fg-clip)" filter="url(#shadow)"></path>
    </g>
</svg>
