<svg xmlns="http://www.w3.org/2000/svg" viewBox="0 0 512 512" style="height: 512px; width: 512px;"><defs><clipPath id="icon-bg"><circle cx="256" cy="256" r="246" fill="url(#gradient-0)" stroke="#000000" stroke-opacity="1" stroke-width="10" transform="translate(-25.6, -25.6) scale(1.1, 1.1) rotate(0, 256, 256)"></circle></clipPath><filter id="shadow-1" height="300%" width="300%" x="-100%" y="-100%"><feFlood flood-color="rgba(0, 0, 0, 1)" result="flood"></feFlood><feComposite in="flood" in2="SourceGraphic" operator="atop" result="composite"></feComposite><feGaussianBlur in="composite" stdDeviation="1" result="blur"></feGaussianBlur><feOffset dx="5" dy="5" result="offset"></feOffset><feComposite in="SourceGraphic" in2="offset" operator="over"></feComposite></filter><radialGradient id="gradient-0"><stop offset="0%" stop-color="#969696" stop-opacity="1"></stop><stop offset="100%" stop-color="#646464" stop-opacity="1"></stop></radialGradient></defs><circle cx="256" cy="256" r="246" fill="url(#gradient-0)" stroke="#000000" stroke-opacity="1" stroke-width="10"></circle><g class="" transform="translate(0,0)" style="touch-action: none;"><path d="M256 23C127.424 23 23 127.424 23 256s104.424 233 233 233 233-104.424 233-233S384.576 23 256 23zm-6.094 18.09C128.036 47.807 130.066 256 256 256c125.215 0 127.935 205.872 8.168 214.83-2.71.1-5.432.17-8.168.17-118.848 0-215-96.152-215-215 0-116.81 92.883-211.69 208.906-214.91zM256 103c22.537 0 41 18.463 41 41s-18.463 41-41 41-41-18.463-41-41 18.463-41 41-41zm0 224c-22.537 0-41 18.463-41 41s18.463 41 41 41 41-18.463 41-41-18.463-41-41-41z" fill="#ffffff" fill-opacity="1" clip-path="url(#icon-bg)" transform="translate(25.6, 25.6) scale(0.9, 0.9) rotate(0, 256, 256)" filter="url(#shadow-1)"></path></g></svg>