<svg xmlns="http://www.w3.org/2000/svg" viewBox="0 0 512 512" style="height: 512px; width: 512px;"><defs><clipPath id="icon-bg"><circle cx="256" cy="256" r="246" fill="url(#gradient-0)" stroke="#000000" stroke-opacity="1" stroke-width="10"></circle></clipPath><filter id="shadow-1" height="300%" width="300%" x="-100%" y="-100%"><feFlood flood-color="rgba(0, 0, 0, 1)" result="flood"></feFlood><feComposite in="flood" in2="SourceGraphic" operator="atop" result="composite"></feComposite><feGaussianBlur in="composite" stdDeviation="1" result="blur"></feGaussianBlur><feOffset dx="5" dy="5" result="offset"></feOffset><feComposite in="SourceGraphic" in2="offset" operator="over"></feComposite></filter><filter id="shadow-2" height="300%" width="300%" x="-100%" y="-100%"><feFlood flood-color="rgba(0, 0, 0, 1)" result="flood"></feFlood><feComposite in="flood" in2="SourceGraphic" operator="atop" result="composite"></feComposite><feGaussianBlur in="composite" stdDeviation="1" result="blur"></feGaussianBlur><feOffset dx="5" dy="5" result="offset"></feOffset><feComposite in="SourceGraphic" in2="offset" operator="over"></feComposite></filter><filter id="shadow-3" height="300%" width="300%" x="-100%" y="-100%"><feFlood flood-color="rgba(0, 0, 0, 1)" result="flood"></feFlood><feComposite in="flood" in2="SourceGraphic" operator="atop" result="composite"></feComposite><feGaussianBlur in="composite" stdDeviation="1" result="blur"></feGaussianBlur><feOffset dx="5" dy="5" result="offset"></feOffset><feComposite in="SourceGraphic" in2="offset" operator="over"></feComposite></filter><filter id="shadow-4" height="300%" width="300%" x="-100%" y="-100%"><feFlood flood-color="rgba(0, 0, 0, 1)" result="flood"></feFlood><feComposite in="flood" in2="SourceGraphic" operator="atop" result="composite"></feComposite><feGaussianBlur in="composite" stdDeviation="1" result="blur"></feGaussianBlur><feOffset dx="5" dy="5" result="offset"></feOffset><feComposite in="SourceGraphic" in2="offset" operator="over"></feComposite></filter><radialGradient id="gradient-0"><stop offset="0%" stop-color="#969696" stop-opacity="1"></stop><stop offset="100%" stop-color="#646464" stop-opacity="1"></stop></radialGradient></defs><circle cx="256" cy="256" r="246" fill="url(#gradient-0)" stroke="#000000" stroke-opacity="1" stroke-width="10"></circle><g class="" transform="translate(0,0)" style="touch-action: none;"><path d="M256 33.78C205.2 119.6 154.2 177 103.7 228.7c101.3-39.2 203.3-39.2 304.6 0C357.8 177 306.8 119.6 256 33.78zm0 183.02c-10.4 0-20.8.5-31.3 1.4 6.5 104.2-48.4 216.9-158.29 268.8H445.6c-109.9-51.9-164.8-164.6-158.3-268.8-10.5-.9-20.9-1.4-31.3-1.4z" fill="#f7f7f7" fill-opacity="1" clip-path="url(#icon-bg)" filter="url(#shadow-1)"></path></g></svg>