<svg xmlns="http://www.w3.org/2000/svg" viewBox="0 0 512 512" style="height: 512px; width: 512px;"><defs><clipPath id="icon-bg"><circle cx="256" cy="256" r="246" fill="url(#gradient-0)" stroke="#000000" stroke-opacity="1" stroke-width="10"></circle></clipPath><filter id="shadow-1" height="300%" width="300%" x="-100%" y="-100%"><feFlood flood-color="rgba(0, 0, 0, 1)" result="flood"></feFlood><feComposite in="flood" in2="SourceGraphic" operator="atop" result="composite"></feComposite><feGaussianBlur in="composite" stdDeviation="1" result="blur"></feGaussianBlur><feOffset dx="5" dy="5" result="offset"></feOffset><feComposite in="SourceGraphic" in2="offset" operator="over"></feComposite></filter><filter id="shadow-2" height="300%" width="300%" x="-100%" y="-100%"><feFlood flood-color="rgba(0, 0, 0, 1)" result="flood"></feFlood><feComposite in="flood" in2="SourceGraphic" operator="atop" result="composite"></feComposite><feGaussianBlur in="composite" stdDeviation="1" result="blur"></feGaussianBlur><feOffset dx="5" dy="5" result="offset"></feOffset><feComposite in="SourceGraphic" in2="offset" operator="over"></feComposite></filter><filter id="shadow-3" height="300%" width="300%" x="-100%" y="-100%"><feFlood flood-color="rgba(0, 0, 0, 1)" result="flood"></feFlood><feComposite in="flood" in2="SourceGraphic" operator="atop" result="composite"></feComposite><feGaussianBlur in="composite" stdDeviation="1" result="blur"></feGaussianBlur><feOffset dx="5" dy="5" result="offset"></feOffset><feComposite in="SourceGraphic" in2="offset" operator="over"></feComposite></filter><filter id="shadow-4" height="300%" width="300%" x="-100%" y="-100%"><feFlood flood-color="rgba(0, 0, 0, 1)" result="flood"></feFlood><feComposite in="flood" in2="SourceGraphic" operator="atop" result="composite"></feComposite><feGaussianBlur in="composite" stdDeviation="1" result="blur"></feGaussianBlur><feOffset dx="5" dy="5" result="offset"></feOffset><feComposite in="SourceGraphic" in2="offset" operator="over"></feComposite></filter><filter id="shadow-5" height="300%" width="300%" x="-100%" y="-100%"><feFlood flood-color="rgba(0, 0, 0, 1)" result="flood"></feFlood><feComposite in="flood" in2="SourceGraphic" operator="atop" result="composite"></feComposite><feGaussianBlur in="composite" stdDeviation="1" result="blur"></feGaussianBlur><feOffset dx="5" dy="5" result="offset"></feOffset><feComposite in="SourceGraphic" in2="offset" operator="over"></feComposite></filter><filter id="shadow-6" height="300%" width="300%" x="-100%" y="-100%"><feFlood flood-color="rgba(0, 0, 0, 1)" result="flood"></feFlood><feComposite in="flood" in2="SourceGraphic" operator="atop" result="composite"></feComposite><feGaussianBlur in="composite" stdDeviation="1" result="blur"></feGaussianBlur><feOffset dx="5" dy="5" result="offset"></feOffset><feComposite in="SourceGraphic" in2="offset" operator="over"></feComposite></filter><radialGradient id="gradient-0"><stop offset="0%" stop-color="#969696" stop-opacity="1"></stop><stop offset="100%" stop-color="#646464" stop-opacity="1"></stop></radialGradient></defs><circle cx="256" cy="256" r="246" fill="url(#gradient-0)" stroke="#000000" stroke-opacity="1" stroke-width="10"></circle><g class="" transform="translate(0,0)" style="touch-action: none;"><path d="M276.44 20.63v473.227c43.08-1.258 82.452-26.44 111.833-68.043 30.15-42.69 49.18-102.418 49.18-168.57 0-66.152-19.027-125.88-49.178-168.57C358.895 47.072 319.52 21.89 276.44 20.63zM156.07 227.194c-10.05.02-20.717.973-31.93 2.67-.857 98.74 54.765 57.68 122.387 65.075-14.887-50.39-46.9-67.83-90.457-67.745zm231.46 0c10.05.02 20.717.973 31.93 2.67.855 98.74-54.767 57.68-122.39 65.075 14.887-50.39 46.903-67.83 90.46-67.745z" fill="#f7f7f7" fill-opacity="1" clip-path="url(#icon-bg)" filter="url(#shadow-1)"></path></g></svg>