<svg xmlns="http://www.w3.org/2000/svg" viewBox="0 0 512 512" style="height: 512px; width: 512px;"><defs><clipPath id="icon-bg"><circle cx="256" cy="256" r="246" fill="url(#gradient-0)" stroke="#000000" stroke-opacity="1" stroke-width="10"></circle></clipPath><filter id="shadow-1" height="300%" width="300%" x="-100%" y="-100%"><feFlood flood-color="rgba(0, 0, 0, 1)" result="flood"></feFlood><feComposite in="flood" in2="SourceGraphic" operator="atop" result="composite"></feComposite><feGaussianBlur in="composite" stdDeviation="1" result="blur"></feGaussianBlur><feOffset dx="5" dy="5" result="offset"></feOffset><feComposite in="SourceGraphic" in2="offset" operator="over"></feComposite></filter><filter id="shadow-2" height="300%" width="300%" x="-100%" y="-100%"><feFlood flood-color="rgba(0, 0, 0, 1)" result="flood"></feFlood><feComposite in="flood" in2="SourceGraphic" operator="atop" result="composite"></feComposite><feGaussianBlur in="composite" stdDeviation="1" result="blur"></feGaussianBlur><feOffset dx="5" dy="5" result="offset"></feOffset><feComposite in="SourceGraphic" in2="offset" operator="over"></feComposite></filter><filter id="shadow-3" height="300%" width="300%" x="-100%" y="-100%"><feFlood flood-color="rgba(0, 0, 0, 1)" result="flood"></feFlood><feComposite in="flood" in2="SourceGraphic" operator="atop" result="composite"></feComposite><feGaussianBlur in="composite" stdDeviation="1" result="blur"></feGaussianBlur><feOffset dx="5" dy="5" result="offset"></feOffset><feComposite in="SourceGraphic" in2="offset" operator="over"></feComposite></filter><filter id="shadow-4" height="300%" width="300%" x="-100%" y="-100%"><feFlood flood-color="rgba(0, 0, 0, 1)" result="flood"></feFlood><feComposite in="flood" in2="SourceGraphic" operator="atop" result="composite"></feComposite><feGaussianBlur in="composite" stdDeviation="1" result="blur"></feGaussianBlur><feOffset dx="5" dy="5" result="offset"></feOffset><feComposite in="SourceGraphic" in2="offset" operator="over"></feComposite></filter><filter id="shadow-5" height="300%" width="300%" x="-100%" y="-100%"><feFlood flood-color="rgba(0, 0, 0, 1)" result="flood"></feFlood><feComposite in="flood" in2="SourceGraphic" operator="atop" result="composite"></feComposite><feGaussianBlur in="composite" stdDeviation="1" result="blur"></feGaussianBlur><feOffset dx="5" dy="5" result="offset"></feOffset><feComposite in="SourceGraphic" in2="offset" operator="over"></feComposite></filter><filter id="shadow-6" height="300%" width="300%" x="-100%" y="-100%"><feFlood flood-color="rgba(0, 0, 0, 1)" result="flood"></feFlood><feComposite in="flood" in2="SourceGraphic" operator="atop" result="composite"></feComposite><feGaussianBlur in="composite" stdDeviation="1" result="blur"></feGaussianBlur><feOffset dx="5" dy="5" result="offset"></feOffset><feComposite in="SourceGraphic" in2="offset" operator="over"></feComposite></filter><radialGradient id="gradient-0"><stop offset="0%" stop-color="#969696" stop-opacity="1"></stop><stop offset="100%" stop-color="#646464" stop-opacity="1"></stop></radialGradient></defs><circle cx="256" cy="256" r="246" fill="url(#gradient-0)" stroke="#000000" stroke-opacity="1" stroke-width="10"></circle><g class="" transform="translate(0,0)" style="touch-action: none;"><path d="m 266.3,30.62 0,450.68 C 310.2,478.2 350.1,454.4 380,416.4 411.9,375.7 432,318.9 432,256 432,193.1 411.9,136.3 380,95.56 350.1,57.53 310.2,33.64 266.3,30.62 Z m -19,0.95 C 88.21,38.6 72.04,223.4 72.04,272.8 c 0,33.6 47.26,18.6 50.36,50.4 l 16.8,140.6 c 0,15.3 73.2,18.7 108.1,17.3 v -40.4 h -16.7 v -24.1 h -14.8 v 24.1 h -18.9 v -24.1 h -14.6 v 24.1 h -18.9 v -24.1 h -17.8 v -18.9 h 17.8 v -24.1 h 18.9 v 24.1 h 14.6 v -24.1 h 18.9 v 24.1 h 14.8 v -24.1 h 16.7 v -31.3 l -40.9,10.3 40.9,-64.9 z M 173.2,226.7 c 25.8,0 52,4.1 54.2,12.5 8.6,32.4 4.4,57.8 -16.8,67.2 -63.4,27.8 -88.2,-16.8 -88.2,-67.2 0,-8.4 25.2,-12.5 50.8,-12.5 z m 159.1,3 c 19.1,0 34.7,15.7 34.7,34.7 0,19 -15.6,34.6 -34.7,34.6 -18.9,0 -34.6,-15.6 -34.6,-34.6 0,-19 15.7,-34.7 34.6,-34.7 z m 0,19 c -8.7,0 -15.7,6.9 -15.7,15.7 0,8.8 7,15.8 15.7,15.8 8.9,0 15.8,-7 15.8,-15.8 0,-8.8 -6.9,-15.7 -15.8,-15.7 z" fill="#f7f7f7" fill-opacity="1" clip-path="url(#icon-bg)" filter="url(#shadow-1)"></path></g></svg>