<svg xmlns="http://www.w3.org/2000/svg" viewBox="0 0 512 512" style="height: 512px; width: 512px;"><defs><clipPath id="icon-bg"><circle cx="256" cy="256" r="246" fill="url(#gradient-0)" stroke="#000000" stroke-opacity="1" stroke-width="10" transform="translate(-25.6, -25.6) scale(1.1, 1.1) rotate(0, 256, 256)"></circle></clipPath><filter id="shadow-1" height="300%" width="300%" x="-100%" y="-100%"><feFlood flood-color="rgba(0, 0, 0, 1)" result="flood"></feFlood><feComposite in="flood" in2="SourceGraphic" operator="atop" result="composite"></feComposite><feGaussianBlur in="composite" stdDeviation="1" result="blur"></feGaussianBlur><feOffset dx="5" dy="5" result="offset"></feOffset><feComposite in="SourceGraphic" in2="offset" operator="over"></feComposite></filter><radialGradient id="gradient-0"><stop offset="0%" stop-color="#969696" stop-opacity="1"></stop><stop offset="100%" stop-color="#646464" stop-opacity="1"></stop></radialGradient></defs><circle cx="256" cy="256" r="246" fill="url(#gradient-0)" stroke="#000000" stroke-opacity="1" stroke-width="10"></circle><g class="" transform="translate(0,0)" style="touch-action: none;"><path d="M129.75 24.47L21.625 211.655l55.78 32.188L185.532 56.656 129.75 24.47zm55.97 69.25l-75.626 130.874L326.47 349.47l75.592-130.876L185.72 93.72zm83.468.686l-11.22 19.438 84.97 49.03 11.25-19.468-85-49zM434.25 200.22L326.156 387.405l55.78 32.188 108.095-187.188-55.78-32.187zm-270.53 76.905l-11.282 19.53 84.968 49 11.25-19.5-84.937-49.03zm-3.095 45.844L61.312 494.81h67.157l82.28-142.968-50.125-28.875z" fill="#ffffff" fill-opacity="1" clip-path="url(#icon-bg)" transform="translate(25.6, 25.6) scale(0.9, 0.9) rotate(0, 256, 256)" filter="url(#shadow-1)"></path></g></svg>